<svg xmlns="http://www.w3.org/2000/svg" viewBox="0 0 345 535"><style>:root{font:14px sans-serif,Droid Sans Fallback}.code{font-family:monospace}.bit,path,rect{filter:url(#dropshadow)}</style><filter id="dropshadow" height="130%"><feGaussianBlur in="SourceAlpha" stdDeviation="3"/><feOffset dx="2" dy="2" result="offsetblur"/><feMerge><feMergeNode/><feMergeNode in="SourceGraphic"/></feMerge></filter><linearGradient id="grad" x1=".5" x2=".5" y1="0" y2="1" gradientUnits="objectBoundingBox"><stop offset="5%" stop-color="#fff"/><stop offset="95%" stop-color="rgba(144,238,144,0.5)"/></linearGradient><polygon fill="url(#grad)" stroke="#000" points="40 10 140 10 110 60 10 60" class="bit"/><text x="75" y="35" text-anchor="middle">Network</text><polyline stroke="#000" points="75 60 75 100"/><polygon points="70 85 80 85 75 100"/><rect width="100" height="50" x="25" y="100" fill="url(#grad)" stroke="#000"/><text x="75" y="120" text-anchor="middle">Byte Stream</text><text x="75" y="135" text-anchor="middle">Decoder</text><polyline stroke="#000" points="75 150 75 190"/><polygon points="70 175 80 175 75 190"/><rect width="100" height="50" x="25" y="190" fill="url(#grad)" stroke="#000"/><text x="75" y="210" text-anchor="middle">Input Stream</text><text x="75" y="225" text-anchor="middle">Preprocessor</text><polyline stroke="#000" points="75 240 75 280"/><polygon points="70 265 80 265 75 280"/><rect width="100" height="50" x="25" y="280" fill="url(#grad)" stroke="#000"/><text x="75" y="305" text-anchor="middle">Tokenizer</text><polyline stroke="#000" points="75 330 75 370"/><polygon points="70 355 80 355 75 370"/><rect width="100" height="50" x="25" y="370" fill="url(#grad)" stroke="#000"/><text x="75" y="390" text-anchor="middle">Tree</text><text x="75" y="405" text-anchor="middle">Construction</text><polyline stroke="#000" points="75 420 75 460"/><polygon points="70 445 80 445 75 460"/><polyline stroke="#000" points="125 395 225 395"/><polygon points="210 390 210 400 225 395"/><path fill="url(#grad)" stroke="#000" d="M 25,520 L 25,460 L 125,460 L 125,510 C 70,510 80,530 25,520"/><text x="75" y="495" text-anchor="middle">DOM</text><polyline fill="transparent" stroke="#000" stroke-dasharray="6" points="125 490 275 490 275 420"/><rect width="100" height="50" x="225" y="370" fill="url(#grad)" stroke="#000"/><text x="275" y="390" text-anchor="middle">Script</text><text x="275" y="405" text-anchor="middle">Execution</text><polyline fill="transparent" stroke="#000" points="275 370 275 215 125 215"/><polygon points="125 215 135 210 135 220"/><text x="270" y="230" class="code" text-anchor="end">document.write()</text></svg>