<svg xmlns="http://www.w3.org/2000/svg" viewBox="0 0 330 140"><style><![CDATA[text{dominant-baseline:central;font-size:13px;font-family:sans-serif}.labels>text{text-anchor:end;fill:gray;font-size:11px}.button>rect{fill:url(#button-gradient);stroke:#b3b3b3}.button>text{text-anchor:middle}]]></style><defs><linearGradient id="button-gradient" x1="0" x2="0" y1="0" y2="1"><stop offset="0%" stop-color="#fff"/><stop offset="100%" stop-color="#999"/></linearGradient></defs><g class="button" transform="translate(5,5)"><rect width="40" height="20" x="0" y="0"/><text x="20" y="10">Send</text></g><g class="button" transform="translate(60,5)"><rect width="70" height="20" x="0" y="0"/><text x="35" y="10">Save Now</text></g><g class="button" transform="translate(145,5)"><rect width="55" height="20" x="0" y="0"/><text x="27.5" y="10">Discard</text></g><text x="12" y="45">To:</text><g transform="translate(35,35)"><rect width="290" height="20" x="0" y="0" fill="#fff" stroke="#d3d3d3"/><rect width="290" height="80" x="0" y="20" fill="#fff" stroke="#d3d3d3"/><text x="7" y="10">bob@example.net, s<tspan dx="-1.5">|</tspan></text><text x="276" y="10" fill="gray">▼</text><g><text x="0" y="0" transform="translate(7,30)">spider@parker.example.net</text><text x="0" y="20" transform="translate(7,30)">scarlet@avengers.example.net</text><text x="0" y="40" transform="translate(7,30)">astronomy@science.example.org</text><text x="0" y="60" transform="translate(7,30)">astrophy@cute.example</text></g><g class="labels"><text x="0" y="0" transform="translate(285,30)">Spider-Man</text><text x="0" y="20" transform="translate(285,30)">Scarlet Witch</text></g></g></svg>